# xmcd
#
# Track frame offsets:
#	150
#	18104
#	41895
#	55172
#	87916
#	109778
#	140532
#	165280
#	189363
#	212431
#	233436
#	261516
#	275685
#	297594
#	328551
#
# Disc length: 4579 seconds
#
# Revision: 4
# Processed by: cddbd v1.5.2PL0 Copyright (c) Steve Scherf et al.
# Submitted via: audiograbber 1.83.01
#
DISCID=d211e10f
DTITLE=Various Artist - Peter Green Songbook [CD 1)
DYEAR=1995
DGENRE=Blues
TTITLE0=Larry McCray - Black Magic Woman
TTITLE1=Luther Grosvenor - Crying Won't Bring You Back
TTITLE2=Ian Anderson - Man Of The World
TTITLE3=Snowy White - Lookin' For Somebody
TTITLE4=Southside Johnny - Baby When The Sun Goes Down
TTITLE5=Rory Gallagher - Leavin' Town Blues
TTITLE6=Vince Converse and Steve Robinson - Rattlesnake Shake
TTITLE7=Jon Paris - Ramblin' Pony
TTITLE8=Arthur Brown - The Green Manalishi
TTITLE9=Jess Roden - Merry Go Round
TTITLE10=Dave Peverett - Love That Burns
TTITLE11=Kim Simmonds - Stop Messin' Round
TTITLE12=Jon Paris - Long Grey Mare
TTITLE13=Rory Gallagher - Showbiz Blues
TTITLE14=Clas Yngstrom - The Supernatural
EXTD=
EXTT0=
EXTT1=w. Jess Roden
EXTT2=
EXTT3=
EXTT4=
EXTT5=
EXTT6=
EXTT7=w. Jon Paris
EXTT8=
EXTT9=w. Jess Roden
EXTT10=(Foghat)
EXTT11=w. Pete McMahon
EXTT12=w. Jon Paris
EXTT13=
EXTT14=
PLAYORDER=
